<svg width="24" height="24" viewBox="0 0 24 24" fill="none" xmlns="http://www.w3.org/2000/svg">
<g filter="url(#filter0_ii_14746_24160)">
<path fill-rule="evenodd" clip-rule="evenodd" d="M0 15.1606C0 17.853 2.18261 20.0356 4.875 20.0356H19.125C21.8174 20.0356 24 17.853 24 15.1606C24 12.544 21.9385 10.4089 19.351 10.2908C18.6581 6.86487 15.6303 4.28564 12 4.28564C8.36975 4.28564 5.3419 6.86487 4.64898 10.2908C2.06152 10.4089 0 12.544 0 15.1606Z" fill="#D9D9D9"/>
<path fill-rule="evenodd" clip-rule="evenodd" d="M0 15.1606C0 17.853 2.18261 20.0356 4.875 20.0356H19.125C21.8174 20.0356 24 17.853 24 15.1606C24 12.544 21.9385 10.4089 19.351 10.2908C18.6581 6.86487 15.6303 4.28564 12 4.28564C8.36975 4.28564 5.3419 6.86487 4.64898 10.2908C2.06152 10.4089 0 12.544 0 15.1606Z" fill="url(#paint0_radial_14746_24160)"/>
<path fill-rule="evenodd" clip-rule="evenodd" d="M0 15.1606C0 17.853 2.18261 20.0356 4.875 20.0356H19.125C21.8174 20.0356 24 17.853 24 15.1606C24 12.544 21.9385 10.4089 19.351 10.2908C18.6581 6.86487 15.6303 4.28564 12 4.28564C8.36975 4.28564 5.3419 6.86487 4.64898 10.2908C2.06152 10.4089 0 12.544 0 15.1606Z" fill="url(#paint1_radial_14746_24160)"/>
<path fill-rule="evenodd" clip-rule="evenodd" d="M0 15.1606C0 17.853 2.18261 20.0356 4.875 20.0356H19.125C21.8174 20.0356 24 17.853 24 15.1606C24 12.544 21.9385 10.4089 19.351 10.2908C18.6581 6.86487 15.6303 4.28564 12 4.28564C8.36975 4.28564 5.3419 6.86487 4.64898 10.2908C2.06152 10.4089 0 12.544 0 15.1606Z" fill="url(#paint2_radial_14746_24160)"/>
</g>
<g filter="url(#filter1_dii_14746_24160)">
<path fill-rule="evenodd" clip-rule="evenodd" d="M15 11.7856C15 13.4425 13.6569 14.7856 12 14.7856C10.3431 14.7856 9 13.4425 9 11.7856C9 10.1288 10.3431 8.78564 12 8.78564C13.6569 8.78564 15 10.1288 15 11.7856ZM14.6074 15.4537C13.8718 15.9775 12.9719 16.2856 12 16.2856C9.51472 16.2856 7.5 14.2709 7.5 11.7856C7.5 9.30036 9.51472 7.28564 12 7.28564C14.4853 7.28564 16.5 9.30036 16.5 11.7856C16.5 12.7575 16.1919 13.6574 15.6681 14.393L18.0937 16.8187C18.3866 17.1116 18.3866 17.5865 18.0937 17.8794C17.8009 18.1723 17.326 18.1723 17.0331 17.8794L14.6074 15.4537Z" fill="#F4F3F2"/>
</g>
<defs>
<filter id="filter0_ii_14746_24160" x="0" y="2.28564" width="36" height="19.75" filterUnits="userSpaceOnUse" color-interpolation-filters="sRGB">
<feFlood flood-opacity="0" result="BackgroundImageFix"/>
<feBlend mode="normal" in="SourceGraphic" in2="BackgroundImageFix" result="shape"/>
<feColorMatrix in="SourceAlpha" type="matrix" values="0 0 0 0 0 0 0 0 0 0 0 0 0 0 0 0 0 0 127 0" result="hardAlpha"/>
<feOffset dx="22" dy="-2"/>
<feGaussianBlur stdDeviation="6"/>
<feComposite in2="hardAlpha" operator="arithmetic" k2="-1" k3="1"/>
<feColorMatrix type="matrix" values="0 0 0 0 0 0 0 0 0 0 0 0 0 0 0 0 0 0 0.15 0"/>
<feBlend mode="multiply" in2="shape" result="effect1_innerShadow_14746_24160"/>
<feColorMatrix in="SourceAlpha" type="matrix" values="0 0 0 0 0 0 0 0 0 0 0 0 0 0 0 0 0 0 127 0" result="hardAlpha"/>
<feOffset dy="2"/>
<feGaussianBlur stdDeviation="2"/>
<feComposite in2="hardAlpha" operator="arithmetic" k2="-1" k3="1"/>
<feColorMatrix type="matrix" values="0 0 0 0 1 0 0 0 0 1 0 0 0 0 1 0 0 0 1 0"/>
<feBlend mode="normal" in2="effect1_innerShadow_14746_24160" result="effect2_innerShadow_14746_24160"/>
</filter>
<filter id="filter1_dii_14746_24160" x="1.5" y="1.28564" width="26.8135" height="20.8135" filterUnits="userSpaceOnUse" color-interpolation-filters="sRGB">
<feFlood flood-opacity="0" result="BackgroundImageFix"/>
<feColorMatrix in="SourceAlpha" type="matrix" values="0 0 0 0 0 0 0 0 0 0 0 0 0 0 0 0 0 0 127 0" result="hardAlpha"/>
<feOffset dx="-2"/>
<feGaussianBlur stdDeviation="2"/>
<feColorMatrix type="matrix" values="0 0 0 0 0.027451 0 0 0 0 0.137255 0 0 0 0 0.290196 0 0 0 0.6 0"/>
<feBlend mode="normal" in2="BackgroundImageFix" result="effect1_dropShadow_14746_24160"/>
<feBlend mode="normal" in="SourceGraphic" in2="effect1_dropShadow_14746_24160" result="shape"/>
<feColorMatrix in="SourceAlpha" type="matrix" values="0 0 0 0 0 0 0 0 0 0 0 0 0 0 0 0 0 0 127 0" result="hardAlpha"/>
<feOffset dx="10" dy="-6"/>
<feGaussianBlur stdDeviation="7"/>
<feComposite in2="hardAlpha" operator="arithmetic" k2="-1" k3="1"/>
<feColorMatrix type="matrix" values="0 0 0 0 0 0 0 0 0 0 0 0 0 0 0 0 0 0 0.15 0"/>
<feBlend mode="multiply" in2="shape" result="effect2_innerShadow_14746_24160"/>
<feColorMatrix in="SourceAlpha" type="matrix" values="0 0 0 0 0 0 0 0 0 0 0 0 0 0 0 0 0 0 127 0" result="hardAlpha"/>
<feOffset dx="-6" dy="108"/>
<feGaussianBlur stdDeviation="4"/>
<feComposite in2="hardAlpha" operator="arithmetic" k2="-1" k3="1"/>
<feColorMatrix type="matrix" values="0 0 0 0 1 0 0 0 0 1 0 0 0 0 1 0 0 0 0.7 0"/>
<feBlend mode="normal" in2="effect2_innerShadow_14746_24160" result="effect3_innerShadow_14746_24160"/>
</filter>
<radialGradient id="paint0_radial_14746_24160" cx="0" cy="0" r="1" gradientUnits="userSpaceOnUse" gradientTransform="translate(30.2578 20.0356) rotate(-149.564) scale(27.9447 26.2899)">
<stop offset="0.035" stop-color="#1EC8B0"/>
<stop offset="0.591063" stop-color="#2764E7"/>
<stop offset="1" stop-color="#B91CBF"/>
</radialGradient>
<radialGradient id="paint1_radial_14746_24160" cx="0" cy="0" r="1" gradientUnits="userSpaceOnUse" gradientTransform="translate(-0.703127 16.5669) rotate(-32.7539) scale(20.1582 23.3876)">
<stop stop-color="#AFA1F1" stop-opacity="0.8"/>
<stop offset="1" stop-color="#AFA1F1" stop-opacity="0"/>
</radialGradient>
<radialGradient id="paint2_radial_14746_24160" cx="0" cy="0" r="1" gradientUnits="userSpaceOnUse" gradientTransform="translate(0.999999 17.4106) rotate(152.403) scale(12.4122 14.4006)">
<stop stop-color="#AFA1F1"/>
<stop offset="1" stop-color="#AFA1F1" stop-opacity="0"/>
</radialGradient>
</defs>
</svg>
